<svg viewBox="0 0 96 96" xmlns="http://www.w3.org/2000/svg" xmlns:xlink="http://www.w3.org/1999/xlink" id="Icons_Move1" overflow="hidden"><path d="M45 38 51 38 51 25 59 25 48 14 37 25 45 25 45 38Z" stroke="#1BC0DB" fill="#1BC0DB"/><path d="M51 58 45 58 45 71 37 71 48 82 59 71 51 71 51 58Z" stroke="#1BC0DB" fill="#1BC0DB"/><path d="M82 48 71 37 71 45 58 45 58 51 71 51 71 59 82 48Z" stroke="#1BC0DB" fill="#1BC0DB"/><path d="M38 51 38 45 25 45 25 37 14 48 25 59 25 51 38 51Z" stroke="#1BC0DB" fill="#1BC0DB"/></svg>