<svg viewBox="0 0 96 96" xmlns="http://www.w3.org/2000/svg" xmlns:xlink="http://www.w3.org/1999/xlink" id="Icons_Architecture_M" overflow="hidden"><style>
.MsftOfcThm_Background1_Fill_v2 {
 fill:#FFFFFF; 
}
.MsftOfcThm_Background1_Stroke_v2 {
 stroke:#FFFFFF; 
}
</style>
<g id="Icons"><path d="M71.005 78 12.005 78C9.79586 78 8.005 76.2091 8.005 74 8.005 71.7909 9.79586 70 12.005 70L20.005 70 20.005 28 69.405 28 71.405 26 20.005 26 20.005 16 12.005 16C8.69289 16.0039 6.00886 18.6879 6.005 22L6.005 74C6.00886 77.3121 8.69289 79.9961 12.005 80L73.005 80 73.005 45.482 71.005 47.482ZM8.005 22C8.005 19.7909 9.79586 18 12.005 18L18.005 18 18.005 68 12.005 68C10.5282 67.9991 9.10333 68.5448 8.005 69.532Z" class="MsftOfcThm_Background1_Stroke_v2 MsftOfcThm_Background1_Fill_v2" stroke="#FFFFFF" stroke-width="1.14286" fill="#FFFFFF"/><path d="M93.414 18.02 89.914 14.52C89.154 13.7438 87.9086 13.7306 87.1324 14.4906 87.1225 14.5003 87.1127 14.5101 87.103 14.52L61.572 40.1 61.436 40.418 59.261 47.139 45.838 34.348 26.614 52.578 31.044 57.008 31.044 70 44.044 70 44.044 58.542 47.544 58.542 47.544 70 60.544 70 60.544 54.942 45.794 40.93 31.435 54.571 29.48 52.616 45.834 37.107 58.7 49.367 67.515 46.497 67.925 46.323 93.365 20.782C94.14 20.1011 94.2163 18.9208 93.5354 18.1457 93.4969 18.102 93.4564 18.06 93.414 18.02ZM33.044 55.8 45.794 43.688 58.544 55.8 58.544 68 49.544 68 49.544 56.542 42.044 56.542 42.044 68 33.044 68ZM67.2 44.221 66.848 44.573 62.671 45.951 61.992 45.272 63.363 41.138 63.772 40.728C64.175 40.4827 64.6372 40.352 65.109 40.35 65.7786 40.3501 66.4202 40.6189 66.89 41.096 67.7421 41.9224 67.8732 43.2433 67.2 44.221ZM87.142 24.275 69.517 41.9C69.1336 40.1684 67.7739 38.8204 66.039 38.452L83.683 20.766 84.017 20.431 87.489 23.9ZM88.866 22.452 85.431 19.017 88.508 15.942 91.941 19.377Z" class="MsftOfcThm_Background1_Stroke_v2 MsftOfcThm_Background1_Fill_v2" stroke="#FFFFFF" stroke-width="1.14286" fill="#FFFFFF"/></g></svg>