<svg viewBox="0 0 96 96" xmlns="http://www.w3.org/2000/svg" xmlns:xlink="http://www.w3.org/1999/xlink" id="Icons_Fire_M" overflow="hidden"><style>
.MsftOfcThm_Background1_Fill_v2 {
 fill:#FFFFFF; 
}
.MsftOfcThm_Background1_Stroke_v2 {
 stroke:#FFFFFF; 
}
</style>
<g id="Icons"><path d="M32.1 36C24.9 42 21 47.5 19.8 50.4 13.1 66.6 22.9 82.3 30 86.2L32.6 87.6 31.4 84.9C28.8 79 26 67.8 34.9 56.7 34.4 61.4 34.4 69.6 39.7 76 46.7 84.6 46.8 91 46.8 91.1L46.8 92.1 47.8 92.1C60 92.1 71.1 84.7 75.7 73.4 79.2 66.6 79.8 55.6 74.7 48.8L71.8 44.9 73 49.6C73.7 52.9 72.6 56.2 70 58.4 67.6 60.6 64.2 61.2 61.2 59.9 58.6 59 56.6 57 55.8 54.5 54.9 51.5 55.5 48.3 57.4 45.9 61.7 40 63 32.3 61 24.6 58.6 15.5 52.1 7.9 43.4 4.1L40.8 3 42.1 5.5C49.7 19.8 36.3 32.5 32.1 36ZM46 7.7C52.4 11.6 57.1 17.8 59 25.1 60.9 32.2 59.7 39.3 55.6 44.7 53.4 47.7 52.7 51.5 53.8 55.1 54.8 58.2 57.3 60.7 60.4 61.8 64.1 63.3 68.3 62.6 71.2 59.9 73.2 58.2 74.5 55.9 74.9 53.4 77.3 59.4 76.4 67.4 73.8 72.5 69.6 82.8 59.8 89.7 48.7 90.1 48.4 87.8 47.2 82 41.2 74.8 34.3 66.4 37.3 54.2 37.4 53.7L38.3 50.1 35.7 52.8C24.8 64.1 26.2 76 28.3 82.7 22.3 77.3 16.1 64.5 21.5 51.3 22.7 48.4 26.8 43 33.2 37.7 42 30.4 49.3 18.9 44.9 7.3 45.1 7.1 45.7 7.5 46 7.7Z" class="MsftOfcThm_Background1_Stroke_v2 MsftOfcThm_Background1_Fill_v2" stroke="#FFFFFF" stroke-width="2.90909" fill="#FFFFFF"/></g></svg>