<svg viewBox="0 0 96 96" xmlns="http://www.w3.org/2000/svg" xmlns:xlink="http://www.w3.org/1999/xlink" id="Icons_Leaf_M" overflow="hidden"><style>
.MsftOfcThm_Background1_Fill_v2 {
 fill:#FFFFFF; 
}
.MsftOfcThm_Background1_Stroke_v2 {
 stroke:#FFFFFF; 
}
</style>
<g id="Icons"><path d="M46.75 19.429C46.335 19.429 45.924 19.429 45.522 19.413 29.9675 19.729 17.6124 32.5913 17.922 48.146 17.9262 51.1881 18.3984 54.2115 19.322 57.11 20.2155 59.7866 21.5584 62.2914 23.293 64.517 16.078 72.731 14.358 78.304 14.012 81.076 13.9437 81.6238 14.3322 82.1234 14.88 82.192 14.9198 82.1974 14.9599 82.2001 15 82.2 15.5038 82.1993 15.9285 81.824 15.991 81.324 16.246 79.288 17.628 74.145 24.542 66.169L24.826 66.543C28.6519 71.7244 34.2665 75.2994 40.58 76.574 42.1871 76.8728 43.8183 77.0231 45.453 77.023L45.621 77.023C50.415 77.0225 55.1177 75.712 59.221 73.233 80.342 61 83 38.485 83 13.2 83 13.2 61.275 19.429 46.75 19.429ZM58.19 71.521C54.3976 73.8113 50.0513 75.0215 45.621 75.021L45.453 75.021C43.9408 75.0204 42.4319 74.8815 40.945 74.606 35.1177 73.4291 29.9385 70.1221 26.419 65.331L25.897 64.644C31.455 58.572 40.1 51 53.555 42.032 54.0145 41.7255 54.1385 41.1045 53.832 40.645 53.5255 40.1855 52.9045 40.0615 52.445 40.368 39.12 49.251 30.383 56.813 24.662 63 23.1697 61.035 22.0084 58.8394 21.224 56.5 20.3605 53.7837 19.922 50.9502 19.924 48.1 19.6526 33.6717 31.097 21.7392 45.524 21.408 45.924 21.418 46.341 21.423 46.757 21.423 58.594 21.423 74.765 17.467 80.995 15.817 80.743 42.278 76.588 60.867 58.19 71.521Z" class="MsftOfcThm_Background1_Fill_v2 MsftOfcThm_Background1_Stroke_v2" stroke="#FFFFFF" stroke-width="2.41509" fill="#FFFFFF"/></g></svg>