<svg viewBox="0 0 96 96" xmlns="http://www.w3.org/2000/svg" xmlns:xlink="http://www.w3.org/1999/xlink" id="Icons_Document_M" overflow="hidden"><style>
.MsftOfcThm_Background1_Fill_v2 {
 fill:#FFFFFF; 
}
.MsftOfcThm_Background1_Stroke_v2 {
 stroke:#FFFFFF; 
}
</style>
<g id="Icons"><rect x="28" y="42" width="40" height="2" class="MsftOfcThm_Background1_Stroke_v2 MsftOfcThm_Background1_Fill_v2" stroke="#FFFFFF" stroke-width="2.7234" fill="#FFFFFF"/><rect x="28" y="34" width="19" height="2" class="MsftOfcThm_Background1_Stroke_v2 MsftOfcThm_Background1_Fill_v2" stroke="#FFFFFF" stroke-width="2.7234" fill="#FFFFFF"/><rect x="28" y="50" width="40" height="2" class="MsftOfcThm_Background1_Stroke_v2 MsftOfcThm_Background1_Fill_v2" stroke="#FFFFFF" stroke-width="2.7234" fill="#FFFFFF"/><rect x="28" y="58" width="40" height="2" class="MsftOfcThm_Background1_Stroke_v2 MsftOfcThm_Background1_Fill_v2" stroke="#FFFFFF" stroke-width="2.7234" fill="#FFFFFF"/><rect x="28" y="66" width="40" height="2" class="MsftOfcThm_Background1_Stroke_v2 MsftOfcThm_Background1_Fill_v2" stroke="#FFFFFF" stroke-width="2.7234" fill="#FFFFFF"/><rect x="28" y="74" width="40" height="2" class="MsftOfcThm_Background1_Stroke_v2 MsftOfcThm_Background1_Fill_v2" stroke="#FFFFFF" stroke-width="2.7234" fill="#FFFFFF"/><path d="M18 8 18 88 78 88 78 29.586 56.414 8ZM57.017 11.431 74.569 28.983C74.5729 28.9869 74.5728 28.9933 74.5689 28.9971 74.567 28.9989 74.5646 29 74.562 29L57 29 57 11.438C57.0001 11.4325 57.0046 11.4281 57.0101 11.4281 57.0127 11.4282 57.0152 11.4292 57.017 11.431ZM20 86 20 10 55 10 55 31 76 31 76 86Z" class="MsftOfcThm_Background1_Stroke_v2 MsftOfcThm_Background1_Fill_v2" stroke="#FFFFFF" stroke-width="2.7234" fill="#FFFFFF"/></g></svg>