<svg viewBox="0 0 96 96" xmlns="http://www.w3.org/2000/svg" xmlns:xlink="http://www.w3.org/1999/xlink" id="Icons_Euro" overflow="hidden"><style>
.MsftOfcThm_Background1_Stroke_v2 {
 stroke:#FFFFFF; 
}
</style>
<path d="M73.63 75.6C68.578 79.0509 62.6178 80.9298 56.5 81 41.91 81 34.91 69.46 32.75 57L61 57 61 51 32.06 51C32 50 32 49 32 48 32 47 32 46 32.08 45L61 45 61 39 32.75 39C34.91 26.54 41.91 15 56.5 15 62.6172 15.0737 68.5764 16.9523 73.63 20.4L76.92 15.4C70.8923 11.3019 63.7885 9.07543 56.5 9 40.73 9 29.44 20.75 26.68 39L19 39 19 45 26.1 45C26.05 46 26.02 47 26.02 48 26.02 49 26.02 50 26.1 51L19 51 19 57 26.68 57C29.44 75.25 40.68 87 56.5 87 63.7905 86.9187 70.8945 84.6852 76.92 80.58Z" class="MsftOfcThm_Background1_Stroke_v2" stroke="#FFFFFF" fill="#548235"/></svg>