<svg viewBox="0 0 96 96" xmlns="http://www.w3.org/2000/svg" xmlns:xlink="http://www.w3.org/1999/xlink" id="Icons_Immunity_M" overflow="hidden"><g id="Icons"><path d="M78.5393 22.8438C67.9325 21.9967 58.0425 17.1552 50.8678 9.29742 49.515 7.72966 47.1474 7.55542 45.5796 8.90824 45.4405 9.02826 45.3104 9.15833 45.1904 9.29742 38.0157 17.1553 28.1258 21.9968 17.519 22.8438 15.5483 23.0281 14.0461 24.6895 14.0607 26.6688L14.0607 36.3221C14.0607 37.4774 14.1081 38.6262 14.1876 39.7696 14.822 39.4385 15.471 39.1322 16.1364 38.8566 16.0914 38.0125 16.0607 37.1678 16.0607 36.3221L16.0607 26.6688C16.0459 25.7315 16.7479 24.9375 17.6799 24.8372 28.7938 23.959 39.1573 18.8853 46.6674 10.6459 47.278 9.8939 48.3826 9.77923 49.1347 10.3898 49.2287 10.4661 49.3145 10.552 49.3908 10.6459 56.901 18.8853 67.2645 23.9589 78.3783 24.8372 79.3104 24.9374 80.0124 25.7315 79.9977 26.6688L79.9977 36.3221C79.9977 55.4413 68.4244 74.2744 49.039 86.7005 48.424 87.0965 47.6343 87.0965 47.0192 86.7005 44.4949 85.0828 42.0636 83.3244 39.7367 81.4337 39.1733 81.8366 38.5932 82.2163 37.9963 82.5727 40.5227 84.6707 43.1755 86.6116 45.9399 88.3843 47.2128 89.2019 48.8456 89.2019 50.1184 88.3843 68.6506 76.505 81.9977 57.3079 81.9977 36.3221L81.9977 26.6688C82.0122 24.6895 80.51 23.0281 78.5393 22.8438Z" stroke="#70AD47" fill="#369266"/><circle cx="26.4179" cy="59.2227" r="1.3501" stroke="#70AD47" fill="#369266"/><circle cx="28.518" cy="63.7725" r="1.3501" stroke="#70AD47" fill="#369266"/><path d="M24.143 62.7725C23.494 62.7723 22.9678 63.2983 22.9677 63.9473 22.9676 64.5962 23.4936 65.1224 24.1425 65.1226 24.7915 65.1227 25.3177 64.5967 25.3178 63.9478 25.317 63.2992 24.7916 62.7735 24.143 62.7725Z" stroke="#70AD47" fill="#369266"/><path d="M35.0707 72.7065C34.6707 72.7111 34.2742 72.7824 33.8976 72.9175L31.2372 68.7368C32.6859 67.5942 33.8085 66.0907 34.4922 64.377L37.7149 65.3772C37.6937 65.5103 37.6802 65.6446 37.6742 65.7793 37.6498 67.8155 39.2806 69.4859 41.3168 69.5103 43.353 69.5348 45.0234 67.9039 45.0479 65.8677 45.0723 63.8316 43.4414 62.1611 41.4053 62.1367 40.2694 62.1231 39.1907 62.6338 38.4813 63.521L35.052 62.4567C35.3139 61.1033 35.304 59.7113 35.023 58.3618L39.209 56.9663C40.2053 58.4024 42.1771 58.7589 43.6132 57.7626 45.0493 56.7663 45.4059 54.7945 44.4096 53.3584 43.4133 51.9222 41.4414 51.5657 40.0053 52.562 39.1869 53.1298 38.6835 54.0498 38.6467 55.0453L34.431 56.4507C33.9265 55.2502 33.2032 54.154 32.2979 53.218L36.0836 48.7738C36.6603 49.0777 37.3016 49.2387 37.9535 49.2432 40.2393 49.2519 42.0994 47.4059 42.1081 45.1201 42.1168 42.8343 40.2708 40.9743 37.985 40.9656 35.6992 40.9569 33.8392 42.8028 33.8305 45.0886 33.8272 45.9383 34.0856 46.7683 34.5704 47.4661L30.7798 51.9161C29.2869 50.8606 27.5429 50.216 25.7224 50.047L25.6434 47.5903C27.4122 46.9588 28.3341 45.0129 27.7026 43.244 27.071 41.4752 25.1251 40.5533 23.3563 41.1848 21.5875 41.8164 20.6655 43.7623 21.2971 45.5311 21.6758 46.5918 22.555 47.3961 23.6451 47.6792L23.7214 50.049C21.823 50.2343 20.0117 50.9365 18.4846 52.0795L15.9343 49.2973C17.2485 47.3539 16.7383 44.7131 14.7949 43.3989 12.8515 42.0848 10.2107 42.5949 8.89652 44.5383 7.58236 46.4817 8.09249 49.1225 10.0359 50.4367 11.3539 51.328 13.0595 51.4079 14.4552 50.6439L17.0006 53.4208C15.4267 55.1354 14.4707 57.3265 14.2843 59.6465L12.1612 59.5892C11.6659 57.6346 9.67998 56.4517 7.72545 56.947 5.77092 57.4422 4.58796 59.4282 5.08324 61.3827 5.57852 63.3373 7.56449 64.5202 9.51902 64.0249 10.744 63.7145 11.7213 62.7928 12.1028 61.5881L14.3072 61.6476C14.4899 63.3382 15.0828 64.9585 16.0344 66.3678L11.6502 69.6205C10.9897 69.1305 10.1896 68.8649 9.3671 68.8628 7.21206 68.8522 5.45644 70.5906 5.44582 72.7456 5.4352 74.9007 7.17359 76.6563 9.32864 76.6669 11.4837 76.6775 13.2393 74.9391 13.2499 72.7841 13.2527 72.2298 13.1373 71.6814 12.9115 71.1752L17.3085 67.913C18.6382 69.2422 20.301 70.1893 22.1226 70.655L21.2831 73.6771C18.8633 73.7192 16.9358 75.7148 16.9779 78.1346 17.0199 80.5543 19.0156 82.4818 21.4354 82.4398 23.8551 82.3977 25.7826 80.4021 25.7406 77.9823 25.7117 76.3189 24.7433 74.8153 23.2407 74.1009L24.1117 70.9657C24.3212 70.9781 24.5289 70.9975 24.7414 70.9975 26.4177 70.9977 28.0694 70.5943 29.557 69.8215L32.2571 74.0647C31.7251 74.7072 31.4323 75.5144 31.4287 76.3487 31.4286 78.3603 33.0592 79.9911 35.0708 79.9912 37.0824 79.9914 38.7132 78.3608 38.7134 76.3492 38.7135 74.3375 37.0829 72.7067 35.0713 72.7066 35.0711 72.7066 35.0709 72.7066 35.0708 72.7066ZM41.3163 64.1367C42.2235 64.1365 42.9591 64.8716 42.9594 65.7788 42.9597 66.686 42.2245 67.4216 41.3173 67.4219 40.4101 67.4221 39.6745 66.687 39.6742 65.7798 39.6742 65.7796 39.6742 65.7795 39.6742 65.7793 39.6752 64.8727 40.4097 64.138 41.3163 64.1367ZM41.7968 53.9976C42.4385 53.9974 42.9588 54.5175 42.9589 55.1592 42.959 55.8009 42.439 56.3212 41.7973 56.3213 41.1556 56.3214 40.6353 55.8014 40.6352 55.1597 40.636 54.5184 41.1555 53.9987 41.7968 53.9976ZM9.3671 74.6284C8.32725 74.6284 7.48428 73.7855 7.48428 72.7456 7.48428 71.7057 8.32725 70.8628 9.3671 70.8628 10.407 70.8628 11.2499 71.7057 11.2499 72.7456 11.2489 73.785 10.4065 74.6274 9.3671 74.6284ZM21.3783 80.3935C20.0733 80.3937 19.0152 79.3358 19.0151 78.0308 19.015 76.7257 20.0729 75.6677 21.3779 75.6675 22.6829 75.6674 23.741 76.7252 23.7411 78.0303 23.7397 79.3347 22.6828 80.3919 21.3783 80.3935ZM37.9535 42.9976C39.1259 42.9977 40.0762 43.9482 40.0761 45.1206 40.076 46.2929 39.1255 47.2433 37.9531 47.2432 36.7809 47.243 35.8306 46.2928 35.8305 45.1206 35.8318 43.9486 36.7816 42.9989 37.9535 42.9976ZM23.099 44.3999C23.0989 43.6255 23.7265 42.9977 24.5009 42.9976 25.2752 42.9974 25.9031 43.6251 25.9032 44.3994 25.9033 45.1738 25.2757 45.8016 24.5013 45.8018 23.7273 45.801 23.1 45.1739 23.099 44.3999ZM10.3671 47.042C10.3671 45.8695 11.3176 44.919 12.4901 44.919 13.6626 44.919 14.6131 45.8695 14.6131 47.042 14.6131 48.2145 13.6626 49.165 12.4901 49.165 11.3181 49.1637 10.3684 48.214 10.3671 47.042ZM8.64689 62.1367C7.73985 62.1368 7.00445 61.4016 7.00432 60.4946 7.00419 59.5876 7.73939 58.8522 8.64643 58.852 9.55347 58.8519 10.2889 59.5871 10.289 60.4941 10.289 60.4943 10.289 60.4945 10.289 60.4946 10.2878 61.401 9.5533 62.1355 8.64689 62.1367ZM16.2414 60.4975C16.2414 55.8031 20.0469 51.9975 24.7414 51.9975 29.4358 51.9975 33.2414 55.8031 33.2414 60.4975 33.2414 65.1919 29.4358 68.9975 24.7414 68.9975 20.0491 68.9922 16.2467 65.1897 16.2414 60.4975ZM35.0707 77.9912C34.1637 77.9911 33.4285 77.2557 33.4286 76.3486 33.4288 75.4416 34.1642 74.7064 35.0712 74.7065 35.9781 74.7067 36.7132 75.4418 36.7133 76.3486 36.7124 77.2554 35.9775 77.9903 35.0707 77.9912Z" stroke="#70AD47" fill="#369266"/></g></svg>