<svg viewBox="0 0 100 125" xmlns="http://www.w3.org/2000/svg" xmlns:xlink="http://www.w3.org/1999/xlink" xml:space="preserve" overflow="hidden"><style>
.MsftOfcThm_Background1_Fill_v2 {
 fill:#FFFFFF; 
}
</style>
<g><path d="M16.8 93.2 83.3 93.2C88.8 93.2 93.2 88.8 93.2 83.4L93.2 53.1C93.2 51.7 92.1 50.6 90.7 50.6 89.3 50.6 88.2 51.7 88.2 53.1L88.2 83.4C88.2 86.1 86 88.2 83.3 88.2L16.8 88.2C14.1 88.2 11.9 86 11.9 83.4L11.9 53.1C11.9 51.7 10.8 50.6 9.4 50.6 8 50.6 6.9 51.7 6.9 53.1L6.9 83.4C6.9 88.8 11.3 93.2 16.8 93.2Z" class="MsftOfcThm_Background1_Fill_v2" fill="#FFFFFF"/><path d="M49.1 14.8C47.7 14.8 46.6 15.9 46.6 17.3L46.6 74.1 32.6 62.1C31.6 61.2 30 61.3 29.1 62.4 28.2 63.4 28.3 65 29.4 65.9L47.6 81.5C47.6 81.5 47.7 81.6 47.7 81.6 47.8 81.6 47.8 81.7 47.9 81.7 48 81.7 48.1 81.8 48.1 81.8 48.2 81.8 48.2 81.9 48.3 81.9 48.4 81.9 48.5 82 48.6 82 48.7 82 48.7 82 48.8 82 49 82 49.1 82 49.3 82 49.5 82 49.6 82 49.8 82 49.9 82 49.9 82 50 82 50.1 82 50.2 81.9 50.3 81.9 50.4 81.9 50.4 81.8 50.5 81.8 50.6 81.8 50.7 81.7 50.7 81.7 50.8 81.7 50.8 81.6 50.9 81.6 50.9 81.6 51 81.5 51 81.5L69.2 65.9C70.2 65 70.4 63.4 69.5 62.4 68.6 61.4 67 61.2 66 62.1L52 74.1 52 17.2C51.6 15.9 50.5 14.8 49.1 14.8Z" class="MsftOfcThm_Background1_Fill_v2" fill="#FFFFFF"/></g><text class="MsftOfcThm_Background1_Fill_v2" fill="#FFFFFF" font-family="Helvetica Neue,Helvetica,Arial-Unicode,Arial,Arial" font-weight="700" font-size="5" x="0" y="115">Created by Genius Icons</text><text class="MsftOfcThm_Background1_Fill_v2" fill="#FFFFFF" font-family="Helvetica Neue,Helvetica,Arial-Unicode,Arial,Arial" font-weight="700" font-size="5" x="0" y="120">from the Noun Project</text></svg>