<svg viewBox="0 0 96 96" xmlns="http://www.w3.org/2000/svg" xmlns:xlink="http://www.w3.org/1999/xlink" id="Icons_Information_M" overflow="hidden"><style>
.MsftOfcResponsive_Stroke_23a70d {
 stroke:#23A70D; 
}
</style>
<g id="Icons"><path d="M47.979 10C27.0038 10 10 27.0038 10 47.979 10 68.9542 27.0038 85.958 47.979 85.958 68.9542 85.958 85.958 68.9542 85.958 47.979 85.9674 27.0132 68.9788 10.0094 48.013 10 48.0017 10 47.9903 10 47.979 10ZM47.979 83.958C28.1083 83.958 12 67.8497 12 47.979 12 28.1083 28.1083 12 47.979 12 67.8497 12 83.958 28.1083 83.958 47.979 83.9354 67.8403 67.8403 83.9354 47.979 83.958Z" class="MsftOfcResponsive_Stroke_23a70d" stroke="#1596AB" stroke-width="2.99996" fill="#23A70D"/><path d="M49 35 41 35 41 37 47 37 47 67 40 67 40 69 56 69 56 67 49 67 49 35Z" class="MsftOfcResponsive_Stroke_23a70d" stroke="#1596AB" stroke-width="2.99996" fill="#23A70D"/><circle cx="46.814" cy="26.5" r="2.25" class="MsftOfcResponsive_Stroke_23a70d" stroke="#1596AB" stroke-width="2.99996" fill="#23A70D"/></g></svg>